HIERARCHY
ROOT hip
{
	OFFSET 0.000000 0.000000 0.000000 
	CHANNELS 6 Xposition Yposition Zposition Xrotation Zrotation Yrotation
	JOINT abdomen
	{
		OFFSET 0.000000 3.402643 0.000000 
		CHANNELS 3 Xrotation Zrotation Yrotation
		JOINT chest
		{
			OFFSET 0.000000 8.438565 -0.680529 
			CHANNELS 3 Xrotation Zrotation Yrotation
			JOINT neck
			{
				OFFSET 0.000000 10.207942 -0.272212 
				CHANNELS 3 Xrotation Zrotation Yrotation
				JOINT head
				{
					OFFSET 0.000000 3.130431 0.000000 
					CHANNELS 3 Xrotation Zrotation Yrotation
					End Site
					{
						OFFSET 0.000000 3.130435 0.000000 
					}
				}
			}
			JOINT lCollar
			{
				OFFSET 3.470700 6.669187 -0.816635 
				CHANNELS 3 Yrotation Zrotation Xrotation
				JOINT lShldr
				{
					OFFSET 3.198488 0.000000 0.000000 
					CHANNELS 3 Zrotation Yrotation Xrotation
					JOINT lForeArm
					{
						OFFSET 10.139888 0.000000 0.000000 
						CHANNELS 3 Yrotation Zrotation Xrotation
						JOINT lHand
						{
							OFFSET 8.370511 0.000000 0.000000 
							CHANNELS 3 Zrotation Yrotation Xrotation
							End Site
							{
								OFFSET 4.083176 0.000000 0.000000 
							}
						}
					}
				}
			}
			JOINT rCollar
			{
				OFFSET -3.470700 6.669187 -0.816635 
				CHANNELS 3 Yrotation Zrotation Xrotation
				JOINT rShldr
				{
					OFFSET -3.198488 0.000000 0.000000 
					CHANNELS 3 Zrotation Yrotation Xrotation
					JOINT rForeArm
					{
						OFFSET -10.139888 0.000000 0.000000 
						CHANNELS 3 Yrotation Zrotation Xrotation
						JOINT rHand
						{
							OFFSET -8.370511 0.000000 0.000000 
							CHANNELS 3 Zrotation Yrotation Xrotation
							End Site
							{
								OFFSET -4.083176 0.000000 0.000000 
							}
						}
					}
				}
			}
		}
	}
	JOINT lThigh
	{
		OFFSET 5.308129 -1.633274 1.361059 
		CHANNELS 3 Xrotation Zrotation Yrotation
		JOINT lShin
		{
			OFFSET -2.041588 -20.007561 0.000000 
			CHANNELS 3 Xrotation Zrotation Yrotation
			JOINT lFoot
			{
				OFFSET 0.000000 -19.190928 -1.224953 
				CHANNELS 3 Xrotation Yrotation Zrotation
				End Site
				{
					OFFSET 0.000000 -2.449906 4.627600 
				}
			}
		}
	}
	JOINT rThigh
	{
		OFFSET -5.308129 -1.633274 1.361059 
		CHANNELS 3 Xrotation Zrotation Yrotation
		JOINT rShin
		{
			OFFSET 2.041588 -20.007561 0.000000 
			CHANNELS 3 Xrotation Zrotation Yrotation
			JOINT rFoot
			{
				OFFSET 0.000000 -19.190928 -1.224953 
				CHANNELS 3 Xrotation Yrotation Zrotation
				End Site
				{
					OFFSET 0.000000 -2.449906 4.627600 
				}
			}
		}
	}
}
MOTION
Frames: 10
Frame Time: 0.033333
-1.069337 46.966106 -4.780563 -10.447010 -1.476581 -10.941373 0.000000 0.000000 0.000000 2.517906 1.097436 -9.679496 -13.869307 -2.456374 6.177483 19.383211 -0.019469 4.560546 -3.521967 9.154817 6.304141 -84.991325 -10.938884 -25.884985 -53.261059 -0.096533 15.622302 11.159363 2.285692 -8.856839 3.089181 -14.089146 8.026228 98.443336 8.165521 14.782963 45.250896 -5.058049 60.776295 -11.523779 -20.742393 -8.501372 -17.974863 13.433827 9.351204 49.944725 -2.228890 -18.476854 -12.570393 -1.445611 9.234018 21.875942 -12.087343 -19.437519 28.232513 -4.224845 7.811569 -31.771643 3.394492 -10.375205 
-0.960287 47.024532 -4.988839 -9.608083 -0.727327 -11.485420 0.000000 0.000000 0.000000 2.895015 0.761687 -9.141370 -16.342892 -2.514996 6.099428 20.176517 0.009738 4.316408 -3.521967 9.154817 6.304141 -84.755272 -11.165795 -26.442333 -54.234226 -0.665772 16.041565 10.945616 3.138232 -8.810991 3.089181 -14.089146 8.026228 97.695541 8.147718 14.007307 47.862637 -3.362193 60.732540 -11.892630 -20.692526 -8.487703 -18.802025 12.894092 9.555280 49.341164 -2.543246 -18.226381 -12.004176 -1.331812 8.758723 20.305330 -13.025417 -19.674623 28.784948 -4.309686 8.015821 -32.205124 3.474684 -10.470045 
-0.966639 47.099594 -5.164508 -9.566021 -0.908105 -11.808231 0.000000 0.000000 0.000000 3.606219 0.974304 -8.956264 -17.623434 -2.427515 6.118528 20.827139 -0.038952 4.316405 -3.521967 9.154817 6.304141 -84.351761 -11.803295 -26.511013 -53.830654 -0.455325 16.218615 11.055940 2.878189 -8.829878 3.089181 -14.089146 8.026228 97.353561 8.507890 13.747517 49.428539 -2.533176 60.768208 -11.219861 -20.921423 -8.524764 -18.740061 13.173670 9.747296 48.900520 -2.621484 -18.181597 -11.612052 -1.283510 8.482475 20.008635 -12.812563 -19.331625 28.672083 -4.409347 7.982485 -32.127525 3.470913 -10.461074 
-1.005286 47.162857 -5.333083 -9.547991 -1.155555 -12.063178 0.000000 0.000000 0.000000 4.014131 1.244607 -8.898398 -17.838154 -2.485409 6.196994 20.844429 -0.068163 4.345700 -3.521967 9.154817 6.304141 -84.069313 -12.302259 -26.799768 -53.535507 -0.153185 16.598042 11.186829 3.421756 -8.817497 3.089181 -14.089146 8.026228 97.027534 8.879142 13.576215 51.030930 -1.582038 60.518883 -11.522847 -21.515461 -8.487830 -18.588970 13.598694 9.966373 48.385376 -2.715902 -18.311789 -11.475863 -1.268827 8.443941 19.743467 -12.489402 -18.964828 28.605347 -4.513424 7.753871 -32.168926 3.441701 -10.424180 
-1.038665 47.257057 -5.524022 -9.391700 -1.364803 -12.230251 0.000000 0.000000 0.000000 4.421157 1.437222 -8.987159 -18.285046 -2.494416 6.343761 21.025391 0.000000 4.443359 -3.521967 9.154817 6.304141 -83.750633 -12.691439 -26.874542 -53.598621 -0.238088 14.827250 13.035104 3.413198 -8.962543 3.089181 -14.089146 8.026228 96.685402 9.269975 13.254042 52.775124 -0.719399 60.627251 -11.573523 -21.687174 -8.469221 -18.600460 13.951878 10.127361 47.732914 -2.769363 -18.480827 -11.044991 -1.174564 8.190160 19.341421 -12.234908 -18.750463 28.509563 -4.440690 7.712955 -31.868061 3.388778 -10.391638 
-1.031224 47.341389 -5.727506 -9.410134 -1.318810 -11.878325 0.000000 0.000000 0.000000 4.834821 1.426324 -9.299561 -18.806927 -2.513589 6.392540 21.435547 0.000000 4.433594 -3.521967 9.154817 6.304141 -83.566322 -13.232243 -27.180519 -53.461365 0.052458 16.009319 12.930319 3.936654 -8.932021 3.089181 -14.089146 8.026228 96.330154 9.677941 13.026325 55.012711 0.295297 58.951294 -14.153075 -22.179314 -8.206045 -18.687065 13.784595 9.933291 47.153446 -2.728387 -18.550404 -10.379511 -1.088745 7.722903 19.149992 -12.158613 -18.871450 28.595913 -4.214478 7.142983 -31.499409 3.327887 -10.212407 
-1.122469 47.461609 -5.946404 -9.083417 -1.497134 -12.455528 0.000000 0.000000 0.000000 4.960011 1.486902 -8.625949 -19.110817 -2.397719 6.264886 21.560167 0.097373 4.365245 -3.521967 9.154817 6.304141 -83.344185 -13.198943 -27.456999 -54.222946 -0.115102 16.188423 13.802274 4.998636 -8.939464 3.089181 -14.089146 8.026228 95.996216 9.771824 12.805209 57.711868 1.404868 57.062073 -15.352567 -22.740427 -8.039890 -18.588060 14.534683 10.627522 46.305641 -3.050066 -18.775608 -10.008054 -1.038948 7.513914 18.436718 -11.846047 -18.421576 28.523762 -4.281642 6.962209 -31.151827 3.259231 -10.144604 
-1.199714 47.577091 -6.227914 -8.578062 -1.391978 -12.503843 0.000000 0.000000 0.000000 4.804509 1.246002 -8.478579 -19.312120 -2.310782 6.166923 21.691448 0.155807 4.316443 -3.521967 9.154817 6.304141 -83.298439 -12.890657 -27.435904 -55.620300 -0.550752 15.440628 16.536602 5.719520 -9.048996 3.089181 -14.089146 8.026228 95.697350 9.949831 12.342532 60.678116 2.595110 56.121536 -15.716562 -22.856251 -8.002787 -18.921854 15.005249 11.116482 45.364952 -3.441404 -19.324419 -8.904027 -0.865674 6.824125 17.481972 -11.725904 -18.541151 28.938904 -4.025750 5.630770 -30.528971 3.083494 -9.802451 
-1.369196 47.737518 -6.499538 -8.080395 -1.674765 -12.994051 0.000000 0.000000 0.000000 4.629036 1.354558 -7.794933 -19.407499 -2.136331 6.088112 21.965843 0.038951 4.335943 -3.521967 9.154817 6.304141 -83.292404 -12.476446 -27.724073 -57.165390 -1.014377 15.312523 19.072639 6.614470 -9.117127 3.089181 -14.089146 8.026228 95.581329 10.085011 11.910901 63.606602 3.738950 55.740749 -15.065490 -22.566652 -8.092564 -18.710583 16.581551 12.589993 44.207024 -4.380372 -20.895145 -7.657775 -0.721812 6.259884 16.618797 -11.249850 -18.674690 29.310108 -3.596453 3.642726 -29.637741 2.796025 -9.201782 
-1.537495 47.916824 -6.763350 -8.310913 -2.066753 -12.772133 0.000000 0.000000 0.000000 5.041688 0.927861 -8.223625 -18.889645 -1.515101 5.998121 21.651468 -0.107070 4.638664 -3.521967 9.154817 6.304141 -82.718719 -11.697206 -28.310007 -59.717411 -2.027527 14.833304 20.960634 7.484453 -9.098757 3.089181 -14.089146 8.026228 96.342186 11.059042 12.146970 64.718948 4.066257 55.258537 -14.642146 -22.654758 -8.127250 -17.818296 18.001284 14.080995 42.857342 -5.302334 -22.693403 -6.016056 -0.572775 5.225104 16.952375 -10.702943 -19.511114 29.340590 -2.591297 0.625518 -28.509235 2.420048 -8.266385 
